<svg width="21" height="20" viewBox="0 0 21 20" fill="none" xmlns="http://www.w3.org/2000/svg">
<path d="M6.375 17.9688C6.97906 17.9688 7.46875 17.4791 7.46875 16.875C7.46875 16.2709 6.97906 15.7812 6.375 15.7812C5.77094 15.7812 5.28125 16.2709 5.28125 16.875C5.28125 17.4791 5.77094 17.9688 6.375 17.9688Z" fill="black" fill-opacity="0.8"/>
<path d="M14.5 17.9688C15.1041 17.9688 15.5938 17.4791 15.5938 16.875C15.5938 16.2709 15.1041 15.7812 14.5 15.7812C13.8959 15.7812 13.4062 16.2709 13.4062 16.875C13.4062 17.4791 13.8959 17.9688 14.5 17.9688Z" fill="black" fill-opacity="0.8"/>
<path d="M3.42969 5.625H17.4453L15.3828 12.8437C15.3092 13.1057 15.1516 13.3363 14.9343 13.5C14.7169 13.6638 14.4518 13.7516 14.1797 13.75H6.69531C6.42319 13.7516 6.15808 13.6638 5.94072 13.5C5.72336 13.3363 5.56578 13.1057 5.49219 12.8437L2.66406 2.95313C2.62669 2.82246 2.54775 2.70754 2.4392 2.62578C2.33065 2.54401 2.1984 2.49986 2.0625 2.5H0.75" stroke="black" stroke-opacity="0.8" stroke-width="1.5" stroke-linecap="round" stroke-linejoin="round"/>
</svg>
