<?xml version="1.0" encoding="UTF-8"?>
<svg id="Layer_1" data-name="Layer 1" xmlns="http://www.w3.org/2000/svg" viewBox="0 0 675.02 88.69">
  <path d="M74.48,82.37c-30.65,0-28.56-42.55-50.21-42.55h-1.98l-6.26,6.54v20.83c0,7.98.77,11.3,4.39,12.52v1.55H0v-1.55c3.63-1.22,4.39-4.54,4.39-12.52V17.76c0-7.98-.77-11.3-4.39-12.52v-1.55h20.43v1.55c-3.63,1.22-4.39,4.54-4.39,12.52v26.04l26.7-27.59c7.03-7.2,7.36-10.64,2.64-11.41v-1.11h17.25v1.55c-4.39,1.22-9.45,2.77-15.05,8.53l-23.51,24.27,2.86-.22c34.28-2.77,30.1,41,55.04,41,5.6,0,10.66-3.44,13.4-8.09l1.1.89c-3.95,6.21-11.21,10.75-21.97,10.75ZM93.27,60.2c-14.28,0-29.33-8.53-29.33-27.37S78.22,2.91,93.27,2.91c13.62,0,29.22,8.09,29.22,27.59s-16.26,29.7-29.22,29.7ZM97.12,57.77c10.77,0,14.28-9.42,14.28-18.84,0-14.07-9.56-35.24-23.73-33.8-9.56,1-12.74,9.86-12.74,19.39,0,13.08,7.69,33.24,22.19,33.24Z"/>
  <path d="M165.65,82.37c-18.68,0-39.33-12.41-39.33-40.23,0-21.94,16.04-39.34,39.33-39.34,18.57,0,39.22,12.85,39.22,40s-20.76,39.56-39.22,39.56ZM171.92,78.93c16.81,0,22.85-12.74,21.86-27.37-1.65-23.6-14.83-45.88-33.84-45.88-14.94,0-23.4,11.75-22.19,29.7,1.54,22.16,15.49,43.55,34.17,43.55Z"/>
  <path d="M207.98,81.26v-1.55c3.63-1.22,4.4-4.54,4.4-12.52V17.76c0-7.98-.77-11.3-4.4-12.52v-1.55h20.43v1.55c-3.62,1.22-4.39,4.54-4.39,12.52v26.04l26.69-27.59c7.03-7.2,7.36-10.64,2.64-11.41v-1.11h17.25v1.55c-4.39,1.22-9.45,2.77-15.05,8.53l-23.4,24.16,2.75-.11c16.48-.89,19.66,4.76,26.48,22.38,6.48,16.84,8.02,19.5,11.54,19.5.55,0,.99,0,1.65-.11v1.66c-2.53.66-5.16.78-7.47.78-9.12,0-10.33-2.66-16.92-18.95-6.92-17.18-8.02-23.27-17.91-23.27h-1.98l-6.26,6.54v20.83c0,7.98.77,11.3,4.39,12.52v1.55h-20.43Z"/>
  <path d="M405.71,81.26h-23.84v-1.55c3.62-1.22,4.39-4.54,4.39-12.52V17.76c0-7.98-.77-11.3-4.39-12.52v-1.55h27.14c18.02,0,24.61,5.65,24.61,14.63,0,7.54-4.72,14.41-18.57,16.84,18.13.55,27.36,8.98,27.47,20.06.22,12.97-9.78,26.04-36.8,26.04ZM406.69,79.49c15.82,0,22.74-8.42,22.74-20.17,0-13.3-7.36-22.72-23.73-22.72h-7.8v33.24c0,7.98.99,9.64,5.71,9.64h3.08ZM407.68,34.83c8.02,0,12.85-6.21,12.85-13.96,0-9.75-6.92-15.4-18.13-15.4h-4.5v29.37h9.78Z"/>
  <path d="M483.69,82.37c-18.68,0-39.33-12.41-39.33-40.23,0-21.94,16.04-39.34,39.33-39.34,18.57,0,39.22,12.85,39.22,40s-20.76,39.56-39.22,39.56ZM489.95,78.93c16.81,0,22.85-12.74,21.86-27.37-1.65-23.6-14.83-45.88-33.84-45.88-14.94,0-23.4,11.75-22.19,29.7,1.54,22.16,15.49,43.55,34.17,43.55Z"/>
  <path d="M566.12,82.37c-18.68,0-39.33-12.41-39.33-40.23,0-21.94,16.04-39.34,39.33-39.34,18.57,0,39.22,12.85,39.22,40s-20.76,39.56-39.22,39.56ZM572.38,78.93c16.81,0,22.85-12.74,21.86-27.37-1.65-23.6-14.83-45.88-33.84-45.88-14.94,0-23.4,11.75-22.19,29.7,1.54,22.16,15.49,43.55,34.17,43.55Z"/>
  <path d="M608.45,81.26v-1.55c3.62-1.22,4.39-4.54,4.39-12.52V17.76c0-7.98-.77-11.3-4.39-12.52v-1.55h20.43v1.55c-3.63,1.22-4.39,4.54-4.39,12.52v26.04l26.7-27.59c7.03-7.2,7.36-10.64,2.64-11.41v-1.11h17.25v1.55c-4.39,1.22-9.45,2.77-15.05,8.53l-23.4,24.16,2.75-.11c16.48-.89,19.66,4.76,26.48,22.38,6.48,16.84,8.02,19.5,11.53,19.5.55,0,.99,0,1.65-.11v1.66c-2.53.66-5.16.78-7.47.78-9.12,0-10.33-2.66-16.92-18.95-6.92-17.18-8.02-23.27-17.91-23.27h-1.98l-6.26,6.54v20.83c0,7.98.77,11.3,4.39,12.52v1.55h-20.43Z"/>
  <path d="M326.4,7.22c4.34-5.83,12.24-8.67,19.23-6.48,4.9,1.15,6.14,5.25,9,5.03,1.66-.04,5.04-.1,6.7-.11,3.2,1.12-6.1,3.58-6.01,9.69-.23,1.12.18,7.05.23,8.29.24,1.7.07,8.54.14,10.38-.17,16.6-8.46,33.44-25.28,38.38-.05,3.95-.02,15.44-.02,15.51,0,.44-.36.8-.8.8h-1.27c-.44,0-.8-.36-.8-.8v-14.76c-2.43.44-7.33.93-9.79.96,0,2.94,0,13.73,0,13.8,0,.44-.36.8-.8.8h-1.38c-.44,0-.8-.36-.8-.8v-13.96c-12.77-1.35-24.83-6.45-34.78-14.61,16.64-2.22,29.33-15.42,36.27-30,3.51-7.29,5.09-15.65,10.15-22.1ZM340.63,32.01c-.53-.09-1.06.2-1.35.69-2,5.61-5.33,11.89-9.47,16.19-7.03,7.77-17.16,11.5-27.49,11.89,15.16,5.36,31.29-6.13,37.35-19.77h0c.77-1.93,3.62-8.02.96-8.99ZM347.08,12.65c2.02-4.79-3.77-9.49-8.12-6.65-8.27,5.8,3.83,15.89,8.12,6.65ZM340.39,8.85c.89-.69,2.11-.74,3,.04h0c.67.58.94,1.46.74,2.33-.17.76-.76,1.45-1.65,1.73-1.07.34-2.24-.24-2.69-1.17-.5-1.01-.27-2.25.61-2.93Z"/>
</svg>