<?xml version="1.0" encoding="UTF-8"?>
<svg id="Layer_1" data-name="Layer 1" xmlns="http://www.w3.org/2000/svg" viewBox="0 0 675.02 86.14">
  <path d="M74.48,79.57c-30.65,0-28.56-42.55-50.21-42.55h-1.98l-6.26,6.54v20.83c0,7.98.77,11.3,4.39,12.52v1.55H0v-1.55c3.63-1.22,4.39-4.54,4.39-12.52V14.96C4.39,6.98,3.63,3.66,0,2.44V.89h20.43v1.55c-3.63,1.22-4.39,4.54-4.39,12.52v26.04l26.7-27.59c7.03-7.2,7.36-10.64,2.64-11.41V.89h17.25v1.55c-4.39,1.22-9.45,2.77-15.05,8.53l-23.51,24.27,2.86-.22c34.28-2.77,30.1,41,55.04,41,5.6,0,10.66-3.44,13.4-8.09l1.1.89c-3.96,6.21-11.21,10.75-21.97,10.75ZM93.27,57.4c-14.28,0-29.33-8.53-29.33-27.37S78.22.11,93.27.11c13.62,0,29.22,8.09,29.22,27.59s-16.26,29.7-29.22,29.7ZM97.12,54.96c10.77,0,14.28-9.42,14.28-18.84,0-14.07-9.56-35.24-23.73-33.8-9.56,1-12.74,9.86-12.74,19.39,0,13.08,7.69,33.24,22.19,33.24Z"/>
  <path d="M165.66,79.57c-18.68,0-39.33-12.41-39.33-40.23,0-21.94,16.04-39.34,39.33-39.34,18.57,0,39.22,12.85,39.22,40s-20.76,39.56-39.22,39.56ZM171.92,76.13c16.81,0,22.85-12.74,21.86-27.37-1.65-23.6-14.83-45.88-33.84-45.88-14.94,0-23.4,11.75-22.19,29.7,1.54,22.16,15.49,43.55,34.17,43.55Z"/>
  <path d="M207.98,78.46v-1.55c3.63-1.22,4.4-4.54,4.4-12.52V14.96c0-7.98-.77-11.3-4.4-12.52V.89h20.43v1.55c-3.62,1.22-4.39,4.54-4.39,12.52v26.04l26.7-27.59c7.03-7.2,7.36-10.64,2.64-11.41V.89h17.25v1.55c-4.39,1.22-9.45,2.77-15.05,8.53l-23.4,24.16,2.75-.11c16.48-.89,19.66,4.76,26.48,22.38,6.48,16.84,8.02,19.5,11.54,19.5.55,0,.99,0,1.65-.11v1.66c-2.53.66-5.16.78-7.47.78-9.12,0-10.33-2.66-16.92-18.95-6.92-17.18-8.02-23.27-17.91-23.27h-1.98l-6.26,6.54v20.83c0,7.98.77,11.3,4.39,12.52v1.55h-20.43Z"/>
  <path d="M405.71,78.46h-23.84v-1.55c3.62-1.22,4.39-4.54,4.39-12.52V14.96c0-7.98-.77-11.3-4.39-12.52V.89h27.13c18.02,0,24.61,5.65,24.61,14.63,0,7.54-4.72,14.41-18.57,16.84,18.13.55,27.35,8.98,27.46,20.06.22,12.97-9.78,26.04-36.8,26.04ZM406.69,76.68c15.82,0,22.74-8.42,22.74-20.17,0-13.3-7.36-22.72-23.73-22.72h-7.8v33.24c0,7.98.99,9.64,5.71,9.64h3.08ZM407.68,32.03c8.02,0,12.85-6.21,12.85-13.96,0-9.75-6.92-15.4-18.13-15.4h-4.5v29.37h9.78Z"/>
  <path d="M483.69,79.57c-18.68,0-39.33-12.41-39.33-40.23,0-21.94,16.04-39.34,39.33-39.34,18.57,0,39.22,12.85,39.22,40s-20.76,39.56-39.22,39.56ZM489.95,76.13c16.81,0,22.85-12.74,21.86-27.37-1.65-23.6-14.83-45.88-33.84-45.88-14.94,0-23.4,11.75-22.19,29.7,1.54,22.16,15.49,43.55,34.17,43.55Z"/>
  <path d="M566.12,79.57c-18.68,0-39.33-12.41-39.33-40.23,0-21.94,16.04-39.34,39.33-39.34,18.57,0,39.22,12.85,39.22,40s-20.76,39.56-39.22,39.56ZM572.38,76.13c16.81,0,22.85-12.74,21.86-27.37-1.65-23.6-14.83-45.88-33.84-45.88-14.94,0-23.4,11.75-22.19,29.7,1.54,22.16,15.49,43.55,34.17,43.55Z"/>
  <path d="M608.45,78.46v-1.55c3.62-1.22,4.39-4.54,4.39-12.52V14.96c0-7.98-.77-11.3-4.39-12.52V.89h20.43v1.55c-3.63,1.22-4.39,4.54-4.39,12.52v26.04l26.7-27.59c7.03-7.2,7.36-10.64,2.64-11.41V.89h17.25v1.55c-4.39,1.22-9.45,2.77-15.05,8.53l-23.4,24.16,2.75-.11c16.48-.89,19.66,4.76,26.48,22.38,6.48,16.84,8.02,19.5,11.53,19.5.55,0,.99,0,1.65-.11v1.66c-2.53.66-5.16.78-7.47.78-9.12,0-10.33-2.66-16.92-18.95-6.92-17.18-8.02-23.27-17.91-23.27h-1.98l-6.26,6.54v20.83c0,7.98.77,11.3,4.39,12.52v1.55h-20.43Z"/>
  <path d="M326.88,15.47c16.96-5.97,26.25,3.76,28.93,10.5.62.57,2.55.79,5.87,1.97h0c1.49.53,1.26,1.03.27,1.93-.98.9-4.24,3.87-4.28,3.91,2.15,6.21,2.48,12.9.92,19.29-2,8.23-7.59,14.79-14.61,19.5-3.74,2.51-8.73,3.92-13.55,4.7,0,4.08.01,8.05.01,8.07,0,.44-.36.8-.8.8h-1.27c-.44,0-.8-.36-.8-.8v-7.67c-3.81.44-7.32.53-9.78.51,0,3.59,0,7.15,0,7.16,0,.44-.36.8-.8.8h-1.38c-.44,0-.8-.36-.8-.8v-7.23c-.38-.02-.59-.03-.59-.03-25.02-3.08-32.84-20.67-32.84-20.67.03,0,6.54,1.33,18.72-8.66,12.16-9.97,12.56-28.27,26.77-33.27ZM332.23,42.2c-.77-.08-1.77.53-1.76,1.49.03,3.87-.92,7.65-2.98,10.95-5.71,9.14-15.26,11.43-26.64,8.32-.94-.26-2.82-.99-2.85-.99.01.02,2.57,4.4,12.11,5,6.79.43,13.4-2.42,17.9-7.51h0c3.73-4.22,5.74-9.69,5.73-15.32,0-1.03-.47-1.83-1.52-1.94ZM343.71,23.12c-3.06,0-5.54,2.48-5.54,5.54s2.48,5.54,5.54,5.54c3.06,0,5.54-2.48,5.54-5.54s-2.48-5.54-5.54-5.54ZM343.84,26.54c1.23,0,2.23,1,2.23,2.23s-1,2.23-2.23,2.23c-1.23,0-2.23-1-2.23-2.23s1-2.23,2.23-2.23Z"/>
</svg>