<svg width="48" height="48" viewBox="0 0 48 48" fill="none" xmlns="http://www.w3.org/2000/svg">
<rect x="0.5" y="0.5" width="47" height="47" rx="23.5" stroke="white" stroke-opacity="0.2"/>
<path d="M26.25 19.5V31.0969C26.2489 31.2215 26.2792 31.3444 26.3382 31.4542C26.3972 31.564 26.483 31.6572 26.5875 31.725L27.6188 32.4094C27.7187 32.4761 27.8331 32.5178 27.9525 32.531C28.0719 32.5443 28.1928 32.5287 28.3049 32.4855C28.4169 32.4423 28.517 32.3728 28.5967 32.2829C28.6763 32.193 28.7332 32.0852 28.7625 31.9688L30 27" stroke="white" stroke-width="1.5" stroke-linecap="round" stroke-linejoin="round"/>
<path d="M30 27C30.9946 27 31.9484 26.6049 32.6517 25.9017C33.3549 25.1984 33.75 24.2446 33.75 23.25C33.75 22.2555 33.3549 21.3016 32.6517 20.5984C31.9484 19.8951 30.9946 19.5 30 19.5H26.25C26.25 19.5 21.1406 19.5 16.2281 15.3844C16.1189 15.294 15.9862 15.2364 15.8455 15.2183C15.7049 15.2003 15.5619 15.2224 15.4334 15.2823C15.3048 15.3422 15.1959 15.4373 15.1191 15.5566C15.0424 15.6759 15.0011 15.8145 15 15.9563V30.5438C15.0011 30.6856 15.0424 30.8242 15.1191 30.9435C15.1959 31.0628 15.3048 31.1579 15.4334 31.2177C15.5619 31.2776 15.7049 31.2998 15.8455 31.2817C15.9862 31.2637 16.1189 31.2061 16.2281 31.1157C21.1406 27 26.25 27 26.25 27H30Z" stroke="white" stroke-width="1.5" stroke-linecap="round" stroke-linejoin="round"/>
</svg>
